<mxfile host="app.diagrams.net" modified="2020-09-03T12:29:26.354Z" agent="5.0 (X11; Linux x86_64) AppleWebKit/537.36 (KHTML, like Gecko) Chrome/84.0.4147.89 Safari/537.36" etag="FmKv2QiwdNXfV4ehRF30" version="13.6.6" type="github">
  <diagram id="R2lEEEUBdFMjLlhIrx00" name="Page-1">
    <mxGraphModel dx="2523" dy="2011" grid="1" gridSize="10" guides="1" tooltips="1" connect="1" arrows="1" fold="1" page="1" pageScale="1" pageWidth="850" pageHeight="1100" math="0" shadow="0" extFonts="Permanent Marker^https://fonts.googleapis.com/css?family=Permanent+Marker">
      <root>
        <mxCell id="0" />
        <mxCell id="1" parent="0" />
        <mxCell id="ybq4rBXa6S7qa59b0Jn1-7" style="edgeStyle=orthogonalEdgeStyle;rounded=0;orthogonalLoop=1;jettySize=auto;html=1;exitX=0.5;exitY=1;exitDx=0;exitDy=0;entryX=0.5;entryY=0;entryDx=0;entryDy=0;fontSize=10;" edge="1" parent="1" source="ybq4rBXa6S7qa59b0Jn1-2" target="ybq4rBXa6S7qa59b0Jn1-6">
          <mxGeometry relative="1" as="geometry" />
        </mxCell>
        <mxCell id="ybq4rBXa6S7qa59b0Jn1-2" value="PERSON" style="rounded=0;whiteSpace=wrap;html=1;fontSize=16;fillColor=#dae8fc;strokeColor=#6c8ebf;" vertex="1" parent="1">
          <mxGeometry x="370" y="180" width="120" height="60" as="geometry" />
        </mxCell>
        <mxCell id="ybq4rBXa6S7qa59b0Jn1-33" style="edgeStyle=orthogonalEdgeStyle;rounded=0;orthogonalLoop=1;jettySize=auto;html=1;exitX=0.5;exitY=1;exitDx=0;exitDy=0;entryX=0.51;entryY=0;entryDx=0;entryDy=0;entryPerimeter=0;fontSize=12;" edge="1" parent="1" source="ybq4rBXa6S7qa59b0Jn1-3" target="ybq4rBXa6S7qa59b0Jn1-29">
          <mxGeometry relative="1" as="geometry" />
        </mxCell>
        <mxCell id="ybq4rBXa6S7qa59b0Jn1-3" value="EMPLOYEE" style="rounded=0;whiteSpace=wrap;html=1;fontSize=16;fillColor=#dae8fc;strokeColor=#6c8ebf;" vertex="1" parent="1">
          <mxGeometry x="250" y="340" width="120" height="60" as="geometry" />
        </mxCell>
        <mxCell id="ybq4rBXa6S7qa59b0Jn1-38" style="edgeStyle=orthogonalEdgeStyle;rounded=0;orthogonalLoop=1;jettySize=auto;html=1;exitX=0.5;exitY=1;exitDx=0;exitDy=0;entryX=0.525;entryY=0.104;entryDx=0;entryDy=0;entryPerimeter=0;fontSize=10;" edge="1" parent="1" source="ybq4rBXa6S7qa59b0Jn1-4" target="ybq4rBXa6S7qa59b0Jn1-36">
          <mxGeometry relative="1" as="geometry" />
        </mxCell>
        <mxCell id="ybq4rBXa6S7qa59b0Jn1-4" value="COSTUMER" style="rounded=0;whiteSpace=wrap;html=1;fontSize=16;fillColor=#dae8fc;strokeColor=#6c8ebf;" vertex="1" parent="1">
          <mxGeometry x="500" y="340" width="120" height="60" as="geometry" />
        </mxCell>
        <mxCell id="ybq4rBXa6S7qa59b0Jn1-44" style="edgeStyle=orthogonalEdgeStyle;rounded=0;orthogonalLoop=1;jettySize=auto;html=1;exitX=0;exitY=1;exitDx=0;exitDy=0;entryX=0.583;entryY=-0.067;entryDx=0;entryDy=0;entryPerimeter=0;fontSize=10;" edge="1" parent="1" source="ybq4rBXa6S7qa59b0Jn1-6" target="ybq4rBXa6S7qa59b0Jn1-3">
          <mxGeometry relative="1" as="geometry" />
        </mxCell>
        <mxCell id="ybq4rBXa6S7qa59b0Jn1-45" style="edgeStyle=orthogonalEdgeStyle;rounded=0;orthogonalLoop=1;jettySize=auto;html=1;exitX=1;exitY=1;exitDx=0;exitDy=0;fontSize=10;" edge="1" parent="1" source="ybq4rBXa6S7qa59b0Jn1-6" target="ybq4rBXa6S7qa59b0Jn1-4">
          <mxGeometry relative="1" as="geometry" />
        </mxCell>
        <mxCell id="ybq4rBXa6S7qa59b0Jn1-6" value="&lt;font style=&quot;font-size: 16px&quot;&gt;d&lt;/font&gt;" style="ellipse;whiteSpace=wrap;html=1;aspect=fixed;fontSize=10;" vertex="1" parent="1">
          <mxGeometry x="412" y="270" width="38" height="38" as="geometry" />
        </mxCell>
        <mxCell id="ybq4rBXa6S7qa59b0Jn1-11" value="SHOP" style="rounded=0;whiteSpace=wrap;html=1;fontSize=16;fillColor=#dae8fc;strokeColor=#6c8ebf;" vertex="1" parent="1">
          <mxGeometry x="371" y="30" width="120" height="60" as="geometry" />
        </mxCell>
        <mxCell id="ybq4rBXa6S7qa59b0Jn1-12" value="INSURANCE COMPANY" style="rounded=0;whiteSpace=wrap;html=1;fontSize=16;fillColor=#dae8fc;strokeColor=#6c8ebf;" vertex="1" parent="1">
          <mxGeometry x="370" y="480" width="120" height="60" as="geometry" />
        </mxCell>
        <mxCell id="ybq4rBXa6S7qa59b0Jn1-13" value="FACTORY" style="rounded=0;whiteSpace=wrap;html=1;fontSize=16;fillColor=#dae8fc;strokeColor=#6c8ebf;" vertex="1" parent="1">
          <mxGeometry x="330" y="630" width="120" height="60" as="geometry" />
        </mxCell>
        <mxCell id="ybq4rBXa6S7qa59b0Jn1-35" style="edgeStyle=orthogonalEdgeStyle;rounded=0;orthogonalLoop=1;jettySize=auto;html=1;entryX=0.5;entryY=1;entryDx=0;entryDy=0;fontSize=12;" edge="1" parent="1" source="ybq4rBXa6S7qa59b0Jn1-20" target="ybq4rBXa6S7qa59b0Jn1-13">
          <mxGeometry relative="1" as="geometry" />
        </mxCell>
        <mxCell id="ybq4rBXa6S7qa59b0Jn1-49" style="edgeStyle=orthogonalEdgeStyle;rounded=0;orthogonalLoop=1;jettySize=auto;html=1;entryX=0.5;entryY=0;entryDx=0;entryDy=0;fontSize=10;" edge="1" parent="1" source="ybq4rBXa6S7qa59b0Jn1-20">
          <mxGeometry relative="1" as="geometry">
            <mxPoint x="389.99999999999955" y="900" as="targetPoint" />
          </mxGeometry>
        </mxCell>
        <mxCell id="ybq4rBXa6S7qa59b0Jn1-20" value="&lt;font style=&quot;font-size: 11px&quot;&gt;WORKING ON&lt;/font&gt;" style="html=1;whiteSpace=wrap;aspect=fixed;shape=isoRectangle;fontSize=12;" vertex="1" parent="1">
          <mxGeometry x="355" y="770" width="70" height="42" as="geometry" />
        </mxCell>
        <mxCell id="ybq4rBXa6S7qa59b0Jn1-31" style="edgeStyle=orthogonalEdgeStyle;rounded=0;orthogonalLoop=1;jettySize=auto;html=1;entryX=0;entryY=0.5;entryDx=0;entryDy=0;fontSize=12;" edge="1" parent="1" source="ybq4rBXa6S7qa59b0Jn1-29" target="ybq4rBXa6S7qa59b0Jn1-12">
          <mxGeometry relative="1" as="geometry" />
        </mxCell>
        <mxCell id="ybq4rBXa6S7qa59b0Jn1-34" style="edgeStyle=orthogonalEdgeStyle;rounded=0;orthogonalLoop=1;jettySize=auto;html=1;entryX=0;entryY=0.5;entryDx=0;entryDy=0;fontSize=12;" edge="1" parent="1" source="ybq4rBXa6S7qa59b0Jn1-29" target="ybq4rBXa6S7qa59b0Jn1-13">
          <mxGeometry relative="1" as="geometry" />
        </mxCell>
        <mxCell id="ybq4rBXa6S7qa59b0Jn1-29" value="&lt;font size=&quot;1&quot;&gt;INSURED_VIA&lt;/font&gt;" style="html=1;whiteSpace=wrap;aspect=fixed;shape=isoRectangle;fontSize=8;" vertex="1" parent="1">
          <mxGeometry x="240" y="480" width="100" height="60" as="geometry" />
        </mxCell>
        <mxCell id="ybq4rBXa6S7qa59b0Jn1-36" value="INSURANCE WITH" style="html=1;whiteSpace=wrap;aspect=fixed;shape=isoRectangle;fontSize=10;" vertex="1" parent="1">
          <mxGeometry x="520" y="430" width="80" height="48" as="geometry" />
        </mxCell>
        <mxCell id="ybq4rBXa6S7qa59b0Jn1-40" value="" style="line;strokeWidth=2;direction=south;html=1;fontSize=10;" vertex="1" parent="1">
          <mxGeometry x="555" y="480" width="10" height="40" as="geometry" />
        </mxCell>
        <mxCell id="ybq4rBXa6S7qa59b0Jn1-41" value="" style="line;strokeWidth=2;html=1;fontSize=10;" vertex="1" parent="1">
          <mxGeometry x="490" y="510" width="70" height="10" as="geometry" />
        </mxCell>
        <mxCell id="ybq4rBXa6S7qa59b0Jn1-47" value="WORKS_AT" style="html=1;whiteSpace=wrap;aspect=fixed;shape=isoRectangle;fontSize=10;" vertex="1" parent="1">
          <mxGeometry x="-20" y="150" width="85" height="51" as="geometry" />
        </mxCell>
        <mxCell id="ybq4rBXa6S7qa59b0Jn1-54" style="edgeStyle=orthogonalEdgeStyle;rounded=0;orthogonalLoop=1;jettySize=auto;html=1;fontSize=10;" edge="1" parent="1" source="ybq4rBXa6S7qa59b0Jn1-53" target="ybq4rBXa6S7qa59b0Jn1-47">
          <mxGeometry relative="1" as="geometry">
            <Array as="points">
              <mxPoint x="23" y="201" />
              <mxPoint x="23" y="201" />
            </Array>
          </mxGeometry>
        </mxCell>
        <mxCell id="ybq4rBXa6S7qa59b0Jn1-53" value="" style="line;strokeWidth=2;direction=south;html=1;fontSize=10;" vertex="1" parent="1">
          <mxGeometry x="17.5" y="201" width="10" height="169" as="geometry" />
        </mxCell>
        <mxCell id="ybq4rBXa6S7qa59b0Jn1-55" value="" style="line;strokeWidth=2;html=1;fontSize=10;" vertex="1" parent="1">
          <mxGeometry x="17.5" y="365" width="232.5" height="10" as="geometry" />
        </mxCell>
        <mxCell id="ybq4rBXa6S7qa59b0Jn1-56" value="" style="line;strokeWidth=2;direction=south;html=1;fontSize=10;" vertex="1" parent="1">
          <mxGeometry x="17.5" y="40" width="10" height="110" as="geometry" />
        </mxCell>
        <mxCell id="ybq4rBXa6S7qa59b0Jn1-57" value="" style="line;strokeWidth=2;html=1;fontSize=10;" vertex="1" parent="1">
          <mxGeometry x="27.5" y="40" width="342.5" height="10" as="geometry" />
        </mxCell>
        <mxCell id="ybq4rBXa6S7qa59b0Jn1-58" value="" style="line;strokeWidth=2;html=1;fontSize=10;" vertex="1" parent="1">
          <mxGeometry x="20" y="380" width="230" height="10" as="geometry" />
        </mxCell>
        <mxCell id="ybq4rBXa6S7qa59b0Jn1-60" value="WORKS_AT" style="html=1;whiteSpace=wrap;aspect=fixed;shape=isoRectangle;fontSize=10;" vertex="1" parent="1">
          <mxGeometry x="130" y="590" width="100" height="60" as="geometry" />
        </mxCell>
        <mxCell id="ybq4rBXa6S7qa59b0Jn1-61" value="" style="line;strokeWidth=2;direction=south;html=1;fontSize=10;" vertex="1" parent="1">
          <mxGeometry x="260" y="400" width="10" height="80" as="geometry" />
        </mxCell>
        <mxCell id="ybq4rBXa6S7qa59b0Jn1-62" value="" style="line;strokeWidth=2;html=1;fontSize=10;" vertex="1" parent="1">
          <mxGeometry x="175" y="470" width="90" height="10" as="geometry" />
        </mxCell>
        <mxCell id="ybq4rBXa6S7qa59b0Jn1-63" value="" style="line;strokeWidth=2;direction=south;html=1;fontSize=10;" vertex="1" parent="1">
          <mxGeometry x="175" y="470" width="10" height="130" as="geometry" />
        </mxCell>
        <mxCell id="ybq4rBXa6S7qa59b0Jn1-64" value="" style="line;strokeWidth=2;direction=south;html=1;fontSize=10;" vertex="1" parent="1">
          <mxGeometry x="170" y="650" width="10" height="30" as="geometry" />
        </mxCell>
        <mxCell id="ybq4rBXa6S7qa59b0Jn1-65" value="" style="line;strokeWidth=2;html=1;fontSize=10;" vertex="1" parent="1">
          <mxGeometry x="175" y="680" width="160" height="10" as="geometry" />
        </mxCell>
        <mxCell id="ybq4rBXa6S7qa59b0Jn1-66" value="TRACKS_INFO" style="html=1;whiteSpace=wrap;aspect=fixed;shape=isoRectangle;fontSize=10;" vertex="1" parent="1">
          <mxGeometry x="620" y="186" width="90" height="54" as="geometry" />
        </mxCell>
        <mxCell id="ybq4rBXa6S7qa59b0Jn1-67" value="SUPPLY" style="html=1;whiteSpace=wrap;aspect=fixed;shape=isoRectangle;fontSize=10;" vertex="1" parent="1">
          <mxGeometry x="840" y="466" width="90" height="54" as="geometry" />
        </mxCell>
        <mxCell id="ybq4rBXa6S7qa59b0Jn1-68" value="" style="line;strokeWidth=2;direction=south;html=1;fontSize=10;" vertex="1" parent="1">
          <mxGeometry x="590" y="210" width="10" height="130" as="geometry" />
        </mxCell>
        <mxCell id="ybq4rBXa6S7qa59b0Jn1-69" value="" style="line;strokeWidth=2;html=1;fontSize=10;" vertex="1" parent="1">
          <mxGeometry x="590" y="210" width="40" height="10" as="geometry" />
        </mxCell>
        <mxCell id="ybq4rBXa6S7qa59b0Jn1-70" value="" style="line;strokeWidth=2;html=1;fontSize=10;" vertex="1" parent="1">
          <mxGeometry x="770" y="488" width="70" height="10" as="geometry" />
        </mxCell>
        <mxCell id="ybq4rBXa6S7qa59b0Jn1-71" value="" style="line;strokeWidth=2;direction=south;html=1;fontSize=10;" vertex="1" parent="1">
          <mxGeometry x="655" y="60" width="10" height="130" as="geometry" />
        </mxCell>
        <mxCell id="ybq4rBXa6S7qa59b0Jn1-72" value="" style="line;strokeWidth=2;html=1;fontSize=10;" vertex="1" parent="1">
          <mxGeometry x="695" y="205" width="85" height="10" as="geometry" />
        </mxCell>
        <mxCell id="ybq4rBXa6S7qa59b0Jn1-75" value="" style="line;strokeWidth=2;html=1;fontSize=10;" vertex="1" parent="1">
          <mxGeometry x="491" y="50" width="169" height="10" as="geometry" />
        </mxCell>
        <mxCell id="ybq4rBXa6S7qa59b0Jn1-76" value="" style="line;strokeWidth=2;direction=south;html=1;fontSize=10;" vertex="1" parent="1">
          <mxGeometry x="655" y="234" width="10" height="346" as="geometry" />
        </mxCell>
        <mxCell id="ybq4rBXa6S7qa59b0Jn1-77" value="" style="line;strokeWidth=2;html=1;fontSize=10;" vertex="1" parent="1">
          <mxGeometry x="410" y="550" width="250" height="70" as="geometry" />
        </mxCell>
        <mxCell id="ybq4rBXa6S7qa59b0Jn1-78" value="" style="line;strokeWidth=2;direction=south;html=1;fontSize=10;" vertex="1" parent="1">
          <mxGeometry x="402" y="580" width="10" height="50" as="geometry" />
        </mxCell>
        <mxCell id="ybq4rBXa6S7qa59b0Jn1-79" value="" style="line;strokeWidth=2;html=1;fontSize=10;" vertex="1" parent="1">
          <mxGeometry x="491" y="30" width="399" height="10" as="geometry" />
        </mxCell>
        <mxCell id="ybq4rBXa6S7qa59b0Jn1-80" value="" style="line;strokeWidth=2;direction=south;html=1;fontSize=10;" vertex="1" parent="1">
          <mxGeometry x="880" y="30" width="10" height="438" as="geometry" />
        </mxCell>
        <mxCell id="ybq4rBXa6S7qa59b0Jn1-81" value="" style="line;strokeWidth=2;html=1;fontSize=10;" vertex="1" parent="1">
          <mxGeometry x="450" y="630" width="440" height="10" as="geometry" />
        </mxCell>
        <mxCell id="ybq4rBXa6S7qa59b0Jn1-82" value="" style="line;strokeWidth=2;direction=south;html=1;fontSize=10;" vertex="1" parent="1">
          <mxGeometry x="770" y="400" width="10" height="100" as="geometry" />
        </mxCell>
        <mxCell id="ybq4rBXa6S7qa59b0Jn1-83" value="" style="line;strokeWidth=2;direction=south;html=1;fontSize=10;" vertex="1" parent="1">
          <mxGeometry x="880" y="520" width="10" height="120" as="geometry" />
        </mxCell>
        <mxCell id="ybq4rBXa6S7qa59b0Jn1-86" value="NAME" style="ellipse;whiteSpace=wrap;html=1;fontSize=14;direction=west;fontColor=#FF0000;" vertex="1" parent="1">
          <mxGeometry x="203" y="230" width="80" height="56" as="geometry" />
        </mxCell>
        <mxCell id="ybq4rBXa6S7qa59b0Jn1-88" value="AADHAR_NO" style="ellipse;whiteSpace=wrap;html=1;fontSize=14;direction=west;fontColor=#FF0000;" vertex="1" parent="1">
          <mxGeometry x="185" y="150" width="110" height="56" as="geometry" />
        </mxCell>
        <mxCell id="ybq4rBXa6S7qa59b0Jn1-89" value="ADDRESS" style="ellipse;whiteSpace=wrap;html=1;fontSize=14;direction=west;fontColor=#FF0000;" vertex="1" parent="1">
          <mxGeometry x="260" y="80" width="80" height="56" as="geometry" />
        </mxCell>
        <mxCell id="ybq4rBXa6S7qa59b0Jn1-92" value="" style="endArrow=classic;html=1;fontSize=14;fontColor=#FF3333;entryX=0;entryY=0;entryDx=0;entryDy=0;" edge="1" parent="1" target="ybq4rBXa6S7qa59b0Jn1-89">
          <mxGeometry width="50" height="50" relative="1" as="geometry">
            <mxPoint x="371" y="180" as="sourcePoint" />
            <mxPoint x="421" y="130" as="targetPoint" />
          </mxGeometry>
        </mxCell>
        <mxCell id="ybq4rBXa6S7qa59b0Jn1-93" value="" style="endArrow=classic;html=1;fontSize=14;fontColor=#FF3333;entryX=1;entryY=0.5;entryDx=0;entryDy=0;" edge="1" parent="1" target="ybq4rBXa6S7qa59b0Jn1-106">
          <mxGeometry width="50" height="50" relative="1" as="geometry">
            <mxPoint x="565" y="-50" as="sourcePoint" />
            <mxPoint x="615" y="-100" as="targetPoint" />
          </mxGeometry>
        </mxCell>
        <mxCell id="ybq4rBXa6S7qa59b0Jn1-94" value="" style="endArrow=classic;html=1;fontSize=14;fontColor=#FF3333;entryX=1;entryY=0;entryDx=0;entryDy=0;" edge="1" parent="1" target="ybq4rBXa6S7qa59b0Jn1-105">
          <mxGeometry width="50" height="50" relative="1" as="geometry">
            <mxPoint x="520" y="-70" as="sourcePoint" />
            <mxPoint x="570" y="-120" as="targetPoint" />
          </mxGeometry>
        </mxCell>
        <mxCell id="ybq4rBXa6S7qa59b0Jn1-95" value="" style="endArrow=classic;html=1;fontSize=14;fontColor=#FF3333;" edge="1" parent="1">
          <mxGeometry width="50" height="50" relative="1" as="geometry">
            <mxPoint x="451" y="30" as="sourcePoint" />
            <mxPoint x="501" y="-20" as="targetPoint" />
          </mxGeometry>
        </mxCell>
        <mxCell id="ybq4rBXa6S7qa59b0Jn1-96" value="" style="endArrow=classic;html=1;fontSize=14;fontColor=#FF3333;entryX=0.631;entryY=-0.001;entryDx=0;entryDy=0;entryPerimeter=0;" edge="1" parent="1" target="ybq4rBXa6S7qa59b0Jn1-103">
          <mxGeometry width="50" height="50" relative="1" as="geometry">
            <mxPoint x="400" y="30" as="sourcePoint" />
            <mxPoint x="450" y="-20" as="targetPoint" />
          </mxGeometry>
        </mxCell>
        <mxCell id="ybq4rBXa6S7qa59b0Jn1-97" value="" style="endArrow=classic;html=1;fontSize=14;fontColor=#FF3333;entryX=0;entryY=0;entryDx=0;entryDy=0;" edge="1" parent="1" target="ybq4rBXa6S7qa59b0Jn1-102">
          <mxGeometry width="50" height="50" relative="1" as="geometry">
            <mxPoint x="371" y="30" as="sourcePoint" />
            <mxPoint x="421" y="-20" as="targetPoint" />
          </mxGeometry>
        </mxCell>
        <mxCell id="ybq4rBXa6S7qa59b0Jn1-98" value="" style="endArrow=classic;html=1;fontSize=14;fontColor=#FF3333;entryX=0;entryY=0.5;entryDx=0;entryDy=0;" edge="1" parent="1" target="ybq4rBXa6S7qa59b0Jn1-86">
          <mxGeometry width="50" height="50" relative="1" as="geometry">
            <mxPoint x="371" y="240" as="sourcePoint" />
            <mxPoint x="421" y="190" as="targetPoint" />
          </mxGeometry>
        </mxCell>
        <mxCell id="ybq4rBXa6S7qa59b0Jn1-99" value="" style="endArrow=classic;html=1;fontSize=14;fontColor=#FF3333;exitX=0;exitY=0.5;exitDx=0;exitDy=0;entryX=0.014;entryY=0.304;entryDx=0;entryDy=0;entryPerimeter=0;" edge="1" parent="1" source="ybq4rBXa6S7qa59b0Jn1-2" target="ybq4rBXa6S7qa59b0Jn1-88">
          <mxGeometry width="50" height="50" relative="1" as="geometry">
            <mxPoint x="520" y="230" as="sourcePoint" />
            <mxPoint x="570" y="180" as="targetPoint" />
          </mxGeometry>
        </mxCell>
        <mxCell id="ybq4rBXa6S7qa59b0Jn1-100" value="" style="line;strokeWidth=2;html=1;fontSize=14;fontColor=#FF3333;" vertex="1" parent="1">
          <mxGeometry x="195" y="186" width="85" height="10" as="geometry" />
        </mxCell>
        <mxCell id="ybq4rBXa6S7qa59b0Jn1-102" value="LOCATION" style="ellipse;whiteSpace=wrap;html=1;fontSize=14;direction=west;fontColor=#FF0000;" vertex="1" parent="1">
          <mxGeometry x="265" y="-56" width="80" height="56" as="geometry" />
        </mxCell>
        <mxCell id="ybq4rBXa6S7qa59b0Jn1-103" value="NAME" style="ellipse;whiteSpace=wrap;html=1;fontSize=14;direction=west;fontColor=#FF0000;" vertex="1" parent="1">
          <mxGeometry x="371" y="-120" width="80" height="56" as="geometry" />
        </mxCell>
        <mxCell id="ybq4rBXa6S7qa59b0Jn1-104" value="GST NO" style="ellipse;whiteSpace=wrap;html=1;fontSize=14;direction=west;fontColor=#FF0000;" vertex="1" parent="1">
          <mxGeometry x="485" y="-70" width="80" height="56" as="geometry" />
        </mxCell>
        <mxCell id="ybq4rBXa6S7qa59b0Jn1-105" value="STATE_CODE" style="ellipse;whiteSpace=wrap;html=1;fontSize=14;direction=west;fontColor=#4D9900;" vertex="1" parent="1">
          <mxGeometry x="510" y="-160" width="105.5" height="56" as="geometry" />
        </mxCell>
        <mxCell id="ybq4rBXa6S7qa59b0Jn1-106" value="&lt;font color=&quot;#4d9900&quot;&gt;PAN-CARD NO&lt;/font&gt;" style="ellipse;whiteSpace=wrap;html=1;fontSize=14;direction=west;fontColor=#FF0000;" vertex="1" parent="1">
          <mxGeometry x="640" y="-136" width="80" height="56" as="geometry" />
        </mxCell>
        <mxCell id="ybq4rBXa6S7qa59b0Jn1-107" value="RANDOM NO" style="ellipse;whiteSpace=wrap;html=1;fontSize=14;direction=west;fontColor=#4D9900;" vertex="1" parent="1">
          <mxGeometry x="640" y="-70" width="80" height="56" as="geometry" />
        </mxCell>
        <mxCell id="ybq4rBXa6S7qa59b0Jn1-108" value="" style="endArrow=classic;html=1;fontSize=14;fontColor=#FF3333;" edge="1" parent="1">
          <mxGeometry width="50" height="50" relative="1" as="geometry">
            <mxPoint x="520" y="330" as="sourcePoint" />
            <mxPoint x="570" y="280" as="targetPoint" />
          </mxGeometry>
        </mxCell>
        <mxCell id="ybq4rBXa6S7qa59b0Jn1-109" value="" style="endArrow=classic;html=1;fontSize=14;fontColor=#FF3333;" edge="1" parent="1">
          <mxGeometry width="50" height="50" relative="1" as="geometry">
            <mxPoint x="520" y="330" as="sourcePoint" />
            <mxPoint x="570" y="280" as="targetPoint" />
          </mxGeometry>
        </mxCell>
        <mxCell id="ybq4rBXa6S7qa59b0Jn1-110" value="" style="endArrow=classic;html=1;fontSize=14;fontColor=#FF3333;" edge="1" parent="1">
          <mxGeometry width="50" height="50" relative="1" as="geometry">
            <mxPoint x="520" y="330" as="sourcePoint" />
            <mxPoint x="570" y="280" as="targetPoint" />
          </mxGeometry>
        </mxCell>
        <mxCell id="ybq4rBXa6S7qa59b0Jn1-111" value="" style="endArrow=classic;html=1;fontSize=14;fontColor=#FF3333;" edge="1" parent="1">
          <mxGeometry width="50" height="50" relative="1" as="geometry">
            <mxPoint x="520" y="330" as="sourcePoint" />
            <mxPoint x="570" y="280" as="targetPoint" />
          </mxGeometry>
        </mxCell>
        <mxCell id="ybq4rBXa6S7qa59b0Jn1-112" value="" style="endArrow=classic;html=1;fontSize=14;fontColor=#FF3333;" edge="1" parent="1">
          <mxGeometry width="50" height="50" relative="1" as="geometry">
            <mxPoint x="520" y="330" as="sourcePoint" />
            <mxPoint x="570" y="280" as="targetPoint" />
          </mxGeometry>
        </mxCell>
        <mxCell id="ybq4rBXa6S7qa59b0Jn1-113" value="" style="endArrow=classic;html=1;fontSize=14;fontColor=#FF3333;" edge="1" parent="1">
          <mxGeometry width="50" height="50" relative="1" as="geometry">
            <mxPoint x="520" y="330" as="sourcePoint" />
            <mxPoint x="570" y="280" as="targetPoint" />
          </mxGeometry>
        </mxCell>
        <mxCell id="ybq4rBXa6S7qa59b0Jn1-114" value="" style="endArrow=classic;html=1;fontSize=14;fontColor=#FF3333;" edge="1" parent="1">
          <mxGeometry width="50" height="50" relative="1" as="geometry">
            <mxPoint x="520" y="330" as="sourcePoint" />
            <mxPoint x="570" y="280" as="targetPoint" />
          </mxGeometry>
        </mxCell>
        <mxCell id="ybq4rBXa6S7qa59b0Jn1-115" value="" style="endArrow=classic;html=1;fontSize=14;fontColor=#FF3333;" edge="1" parent="1">
          <mxGeometry width="50" height="50" relative="1" as="geometry">
            <mxPoint x="520" y="330" as="sourcePoint" />
            <mxPoint x="570" y="280" as="targetPoint" />
          </mxGeometry>
        </mxCell>
        <mxCell id="ybq4rBXa6S7qa59b0Jn1-118" value="" style="endArrow=classic;html=1;fontSize=14;fontColor=#FF3333;entryX=1;entryY=0.5;entryDx=0;entryDy=0;" edge="1" parent="1" target="ybq4rBXa6S7qa59b0Jn1-107">
          <mxGeometry width="50" height="50" relative="1" as="geometry">
            <mxPoint x="550.5" y="-20" as="sourcePoint" />
            <mxPoint x="600.5" y="-70" as="targetPoint" />
          </mxGeometry>
        </mxCell>
        <mxCell id="ybq4rBXa6S7qa59b0Jn1-120" value="" style="line;strokeWidth=2;html=1;fontSize=14;fontColor=#4D9900;" vertex="1" parent="1">
          <mxGeometry x="495" y="-34" width="60" height="10" as="geometry" />
        </mxCell>
        <mxCell id="ybq4rBXa6S7qa59b0Jn1-121" value="" style="line;strokeWidth=2;html=1;fontSize=14;fontColor=#4D9900;" vertex="1" parent="1">
          <mxGeometry x="270" y="-24" width="70" height="10" as="geometry" />
        </mxCell>
        <mxCell id="ybq4rBXa6S7qa59b0Jn1-122" value="OWNER_NAME" style="ellipse;whiteSpace=wrap;html=1;fontSize=14;direction=west;fontColor=#FF0000;" vertex="1" parent="1">
          <mxGeometry x="520.5" y="650" width="110" height="56" as="geometry" />
        </mxCell>
        <mxCell id="ybq4rBXa6S7qa59b0Jn1-123" value="LOCATION" style="ellipse;whiteSpace=wrap;html=1;fontSize=14;direction=west;fontColor=#FF0000;" vertex="1" parent="1">
          <mxGeometry x="530" y="720" width="110" height="56" as="geometry" />
        </mxCell>
        <mxCell id="ybq4rBXa6S7qa59b0Jn1-124" value="E-MAIL" style="ellipse;whiteSpace=wrap;html=1;fontSize=14;direction=west;fontColor=#FF0000;" vertex="1" parent="1">
          <mxGeometry x="455" y="790" width="110" height="56" as="geometry" />
        </mxCell>
        <mxCell id="ybq4rBXa6S7qa59b0Jn1-126" value="" style="endArrow=classic;html=1;fontSize=14;fontColor=#4D9900;entryX=0.5;entryY=0;entryDx=0;entryDy=0;" edge="1" parent="1" target="ybq4rBXa6S7qa59b0Jn1-136">
          <mxGeometry width="50" height="50" relative="1" as="geometry">
            <mxPoint x="790" y="340" as="sourcePoint" />
            <mxPoint x="840" y="290" as="targetPoint" />
          </mxGeometry>
        </mxCell>
        <mxCell id="ybq4rBXa6S7qa59b0Jn1-127" value="" style="endArrow=classic;html=1;fontSize=14;fontColor=#4D9900;entryX=0.99;entryY=0.671;entryDx=0;entryDy=0;entryPerimeter=0;" edge="1" parent="1" target="ybq4rBXa6S7qa59b0Jn1-123">
          <mxGeometry width="50" height="50" relative="1" as="geometry">
            <mxPoint x="451" y="690" as="sourcePoint" />
            <mxPoint x="501" y="640" as="targetPoint" />
          </mxGeometry>
        </mxCell>
        <mxCell id="ybq4rBXa6S7qa59b0Jn1-128" value="" style="endArrow=classic;html=1;fontSize=14;fontColor=#4D9900;" edge="1" parent="1" target="ybq4rBXa6S7qa59b0Jn1-122">
          <mxGeometry width="50" height="50" relative="1" as="geometry">
            <mxPoint x="451" y="680" as="sourcePoint" />
            <mxPoint x="501" y="630" as="targetPoint" />
          </mxGeometry>
        </mxCell>
        <mxCell id="ybq4rBXa6S7qa59b0Jn1-129" value="" style="endArrow=classic;html=1;fontSize=14;fontColor=#4D9900;entryX=0.757;entryY=0.892;entryDx=0;entryDy=0;entryPerimeter=0;exitX=0.852;exitY=1.081;exitDx=0;exitDy=0;exitPerimeter=0;" edge="1" parent="1" source="ybq4rBXa6S7qa59b0Jn1-13" target="ybq4rBXa6S7qa59b0Jn1-124">
          <mxGeometry width="50" height="50" relative="1" as="geometry">
            <mxPoint x="520" y="580" as="sourcePoint" />
            <mxPoint x="570" y="530" as="targetPoint" />
          </mxGeometry>
        </mxCell>
        <mxCell id="ybq4rBXa6S7qa59b0Jn1-130" value="" style="line;strokeWidth=2;html=1;" vertex="1" parent="1">
          <mxGeometry x="470" y="820" width="80" height="10" as="geometry" />
        </mxCell>
        <mxCell id="ybq4rBXa6S7qa59b0Jn1-131" value="" style="line;strokeWidth=2;html=1;fontSize=14;fontColor=#4D9900;" vertex="1" parent="1">
          <mxGeometry x="540" y="750" width="90" height="10" as="geometry" />
        </mxCell>
        <mxCell id="ybq4rBXa6S7qa59b0Jn1-133" value="COMMODITY" style="shape=ext;double=1;rounded=1;whiteSpace=wrap;html=1;fontSize=16;labelBackgroundColor=none;fillColor=#ffe6cc;strokeColor=#d79b00;" vertex="1" parent="1">
          <mxGeometry x="720" y="340" width="120" height="60" as="geometry" />
        </mxCell>
        <mxCell id="ybq4rBXa6S7qa59b0Jn1-134" style="edgeStyle=orthogonalEdgeStyle;rounded=0;orthogonalLoop=1;jettySize=auto;html=1;entryX=0.825;entryY=0.535;entryDx=0;entryDy=0;entryPerimeter=0;fontSize=14;fontColor=#4D9900;" edge="1" parent="1">
          <mxGeometry relative="1" as="geometry">
            <mxPoint x="775" y="317" as="sourcePoint" />
            <mxPoint x="774.6500000000001" y="317.25" as="targetPoint" />
          </mxGeometry>
        </mxCell>
        <mxCell id="ybq4rBXa6S7qa59b0Jn1-135" value="" style="line;strokeWidth=2;direction=south;html=1;labelBackgroundColor=none;fontSize=16;fontColor=#4D9900;" vertex="1" parent="1">
          <mxGeometry x="775" y="209" width="10" height="131" as="geometry" />
        </mxCell>
        <mxCell id="ybq4rBXa6S7qa59b0Jn1-136" value="NAME" style="ellipse;whiteSpace=wrap;html=1;fontSize=14;direction=west;fontColor=#FF0000;" vertex="1" parent="1">
          <mxGeometry x="790" y="252" width="80" height="56" as="geometry" />
        </mxCell>
        <mxCell id="ybq4rBXa6S7qa59b0Jn1-137" value="YEAR" style="ellipse;whiteSpace=wrap;html=1;fontSize=14;direction=west;fontColor=#FF0000;" vertex="1" parent="1">
          <mxGeometry x="250" y="810" width="80" height="56" as="geometry" />
        </mxCell>
        <mxCell id="ybq4rBXa6S7qa59b0Jn1-138" value="CONSIGNMENT" style="shape=ext;double=1;rounded=1;whiteSpace=wrap;html=1;fontSize=16;labelBackgroundColor=none;fillColor=#ffe6cc;strokeColor=#d79b00;" vertex="1" parent="1">
          <mxGeometry x="335" y="900" width="135" height="60" as="geometry" />
        </mxCell>
        <mxCell id="ybq4rBXa6S7qa59b0Jn1-139" value="" style="endArrow=classic;html=1;fontSize=16;fontColor=#4D9900;" edge="1" parent="1">
          <mxGeometry width="50" height="50" relative="1" as="geometry">
            <mxPoint x="520" y="770" as="sourcePoint" />
            <mxPoint x="570" y="720" as="targetPoint" />
          </mxGeometry>
        </mxCell>
        <mxCell id="ybq4rBXa6S7qa59b0Jn1-140" value="" style="endArrow=classic;html=1;fontSize=16;fontColor=#4D9900;entryX=0;entryY=0;entryDx=0;entryDy=0;" edge="1" parent="1" target="ybq4rBXa6S7qa59b0Jn1-137">
          <mxGeometry width="50" height="50" relative="1" as="geometry">
            <mxPoint x="340" y="900" as="sourcePoint" />
            <mxPoint x="390" y="850" as="targetPoint" />
          </mxGeometry>
        </mxCell>
        <mxCell id="ybq4rBXa6S7qa59b0Jn1-141" value="QUANTITY" style="ellipse;whiteSpace=wrap;html=1;fontSize=14;direction=west;fontColor=#FF0000;" vertex="1" parent="1">
          <mxGeometry x="190" y="890" width="80" height="56" as="geometry" />
        </mxCell>
        <mxCell id="ybq4rBXa6S7qa59b0Jn1-142" value="" style="endArrow=classic;html=1;fontSize=16;fontColor=#4D9900;entryX=0;entryY=0.5;entryDx=0;entryDy=0;" edge="1" parent="1" target="ybq4rBXa6S7qa59b0Jn1-141">
          <mxGeometry width="50" height="50" relative="1" as="geometry">
            <mxPoint x="335" y="943" as="sourcePoint" />
            <mxPoint x="385" y="893" as="targetPoint" />
          </mxGeometry>
        </mxCell>
        <mxCell id="ybq4rBXa6S7qa59b0Jn1-143" value="SUPERVISE" style="html=1;whiteSpace=wrap;aspect=fixed;shape=isoRectangle;labelBackgroundColor=none;fontSize=10;" vertex="1" parent="1">
          <mxGeometry x="-15" y="410" width="80" height="48" as="geometry" />
        </mxCell>
        <mxCell id="ybq4rBXa6S7qa59b0Jn1-144" value="" style="line;strokeWidth=2;direction=south;html=1;labelBackgroundColor=none;fontSize=16;fontColor=#4D9900;" vertex="1" parent="1">
          <mxGeometry x="250" y="400" width="10" height="40" as="geometry" />
        </mxCell>
        <mxCell id="ybq4rBXa6S7qa59b0Jn1-145" value="" style="line;strokeWidth=2;direction=south;html=1;labelBackgroundColor=none;fontSize=16;fontColor=#4D9900;" vertex="1" parent="1">
          <mxGeometry x="20" y="380" width="10" height="32" as="geometry" />
        </mxCell>
        <mxCell id="ybq4rBXa6S7qa59b0Jn1-146" value="" style="line;strokeWidth=2;html=1;labelBackgroundColor=none;fontSize=16;fontColor=#4D9900;" vertex="1" parent="1">
          <mxGeometry x="65" y="429" width="195" height="10" as="geometry" />
        </mxCell>
        <mxCell id="ybq4rBXa6S7qa59b0Jn1-149" value="NAME" style="ellipse;whiteSpace=wrap;html=1;fontSize=14;direction=west;fontColor=#FF0000;" vertex="1" parent="1">
          <mxGeometry x="335" y="410" width="65" height="42" as="geometry" />
        </mxCell>
        <mxCell id="ybq4rBXa6S7qa59b0Jn1-150" value="COSTUMERS COUNT" style="ellipse;whiteSpace=wrap;html=1;fontSize=14;direction=west;fontColor=#FF0000;" vertex="1" parent="1">
          <mxGeometry x="398" y="350" width="97" height="55" as="geometry" />
        </mxCell>
        <mxCell id="ybq4rBXa6S7qa59b0Jn1-151" value="" style="endArrow=classic;html=1;fontSize=10;fontColor=#000000;entryX=0;entryY=0;entryDx=0;entryDy=0;" edge="1" parent="1" target="ybq4rBXa6S7qa59b0Jn1-149">
          <mxGeometry width="50" height="50" relative="1" as="geometry">
            <mxPoint x="398" y="480" as="sourcePoint" />
            <mxPoint x="448" y="430" as="targetPoint" />
          </mxGeometry>
        </mxCell>
        <mxCell id="ybq4rBXa6S7qa59b0Jn1-152" value="" style="endArrow=classic;html=1;fontSize=10;fontColor=#000000;entryX=0.5;entryY=0;entryDx=0;entryDy=0;" edge="1" parent="1" target="ybq4rBXa6S7qa59b0Jn1-150">
          <mxGeometry width="50" height="50" relative="1" as="geometry">
            <mxPoint x="450" y="480" as="sourcePoint" />
            <mxPoint x="500" y="430" as="targetPoint" />
          </mxGeometry>
        </mxCell>
        <mxCell id="ybq4rBXa6S7qa59b0Jn1-153" value="" style="line;strokeWidth=2;html=1;labelBackgroundColor=none;fontSize=10;fontColor=#000000;" vertex="1" parent="1">
          <mxGeometry x="345" y="435" width="45" height="10" as="geometry" />
        </mxCell>
      </root>
    </mxGraphModel>
  </diagram>
</mxfile>
